<?xml version="1.0" encoding="UTF-8"?>
<svg id="Layer_2" data-name="Layer 2" xmlns="http://www.w3.org/2000/svg" viewBox="0 0 647.89 647.89">
  <defs>
    <style>
      .cls-1 {
        fill: #fff;
        stroke: #fff;
        stroke-miterlimit: 10;
        stroke-width: 2px;
      }

      .cls-2 {
        fill: #e11d48;
      }
    </style>
  </defs>
  <g id="Layer_1-2" data-name="Layer 1">
    <g>
      <rect class="cls-2" width="647.89" height="647.89" rx="73.09" ry="73.09"/>
      <path class="cls-1" d="M327.13,552.39c-31.82,0-60.35-3.08-85.59-9.23-25.25-6.14-47.2-13.25-65.86-21.32-4.67-2.12-8.81-5.62-12.41-10.5-3.61-4.87-5.41-10.07-5.41-15.59,0-7.21,2.33-13.46,7-18.77,4.66-5.3,11.03-7.95,19.09-7.95,4.23,0,8.27.85,12.09,2.55,14.42,6.36,32.14,12.31,53.14,17.82,21,5.52,45.07,8.27,72.23,8.27,21.21,0,40.19-2.23,56.95-6.68,16.75-4.45,30.01-12.09,39.77-22.91,9.75-10.82,14.63-25.34,14.63-43.59,0-13.57-4.88-24.5-14.63-32.77-9.76-8.27-22.7-15.16-38.82-20.68-16.13-5.51-33.84-10.6-53.14-15.27-19.31-4.66-38.5-9.86-57.59-15.59-19.09-5.73-36.7-13.26-52.82-22.59-16.13-9.33-29.06-21.32-38.82-35.95-9.76-14.64-14.63-33.19-14.63-55.68,0-23.75,6.25-45.5,18.77-65.22,12.51-19.73,31.07-35.53,55.68-47.41,24.6-11.87,54.73-17.82,90.36-17.82,25.03,0,48.14,1.91,69.36,5.73,21.21,3.82,40.3,8.91,57.27,15.27,4.66,1.7,8.8,4.45,12.41,8.27,3.6,3.82,5.41,9.54,5.41,17.18,0,6.36-2.23,12.41-6.68,18.13-4.46,5.73-10.72,8.59-18.77,8.59-1.7,0-3.4-.32-5.09-.96-1.7-.63-3.4-1.16-5.09-1.59-14.43-5.09-30.23-9.23-47.41-12.41-17.18-3.18-35.53-4.77-55.04-4.77-32.24,0-59.18,6.16-80.81,18.45-21.64,12.31-32.45,30.34-32.45,54.09,0,15.7,4.87,28.22,14.63,37.54,9.75,9.34,22.69,16.76,38.82,22.27,16.12,5.52,33.73,10.5,52.82,14.96,19.09,4.45,38.18,9.45,57.27,14.95,19.09,5.52,36.69,12.84,52.82,21.95,16.12,9.13,29.05,21.22,38.82,36.27,9.75,15.06,14.64,34.68,14.64,58.86s-6.68,45.08-20.05,63.95c-13.36,18.88-32.24,33.63-56.64,44.22-24.4,10.6-53.13,15.91-86.22,15.91Z"/>
    </g>
  </g>
</svg>